<svg id="Calque_1" xmlns="http://www.w3.org/2000/svg" viewBox="0 0 311.2 311.2"><style>.st0{fill:#fff}.st1{fill:#f6b11a}.st2{fill:#891e6e}.st3{fill:#641a50}.st4{fill:#8a1e6e}.st5{fill:#fdcf00}.st6{fill:#111212}</style><path class="st0" d="M231 98.6c3.5 15.8 4.6 49.9-1.2 71.9-2.4 8.7 19 37.1 19.5 70.4.1-.1.2-.1.2-.2-.7-33.1-21.9-61.3-19.5-70 5.8-22 4.7-56.1 1.2-71.9-4.9-17.4-12.6-30.1-22.4-37.1 9.7 7.1 17.3 19.7 22.2 36.9zm-76.2-27c-2-2.9-4.6-5.5-7.7-7.8 3 2.3 5.6 4.9 7.7 7.8z"/><path class="st0" d="M208.9 61.7c-5.8-4.2-12.3-6.4-19.4-6.4-15.6 0-27.8 7.1-34.5 16.5-.1-.1-.1-.2-.2-.3l-.1.1c-2.1-2.9-4.7-5.5-7.7-7.8-6.9-5.1-16-8.4-26.6-8.4-18.9 0-34.1 14-41.6 43.7-3.4 15.8-4.5 49.9 1.5 71.9 2.5 9.2-21.5 39.8-19.7 75.1 25 19.7 57.1 31.9 91.4 31.8 37.3-.1 71.5-8.4 97.4-31.3 3-33.1-22.2-67.3-19.8-76.1 6.9-20.5 5.5-52.9 1.2-71.9-6.1-27.1-21.9-36.9-21.9-36.9z"/><path class="st0" d="M11.4 217.8c.5 1.4 1.2 2.7 2.2 3.7 1.2 1.3 2.6 1.7 4.3 1.5 2.6-.4 4.8-1.7 6.8-3.1 1.9-1.3 3.7-2.7 5.3-4.4.7-.7 1.5-1.3 2.4-1.7 1.1-.5 1.9-.1 1.8 1-.3 3.4 1.5 5.9 3.3 8.4 3.2 4.4 6.9 8.4 10.9 12 3.9 3.5 7.8 7.1 12 10.2.3.2.6.5 1.1.7.2-.5.1-.9.1-1.3-.6-10.1 1.2-19.8 3.9-29.4 2.4-8.5 5.7-16.7 9.1-24.8.2-.5.4-1 .9-1.2.5-.2.8.1 1.2.3 6.6 3.4 13.3 6.6 20.2 9.3.5.2 1 .4 1.3.8.3.5.2 1 0 1.5-2.1 8-4.2 16-6.4 24.1-1 3.7-1.9 7.3-3 11.2 1.1-1 2.1-1.8 3-2.6 1.7-1.5 3.5-1.1 4.4 1 .7 1.7 1.5 3.4 2.2 5.1.5 1.2.8 1.3 1.5.3 1.7-2.1 3.7-3.9 5.6-5.8 1.8-1.8 3.7-1.4 4.7 1s2.1 4.9 3.1 7.3c.6 1.4.7 1.4 1.8.4 1.5-1.3 3.1-2.5 4.5-4s3.9-1.3 4.8 1.1c1.1 2.9 2.5 5.6 3.8 8.4.3.8.6.7 1.2.3 1.9-1.3 3.7-2.6 5.6-3.8.6-.4 1.3-.8 2.1-.7 1.1.2 1.8.8 2.1 1.8.4 1.3.9 2.6 1.4 4.1.5-3.7.8-7.2 1.2-10.8.1-.6.1-1.2.7-1.6 1.9-.3 3.7-.2 5.6-.4 2.8-.2 5.6-.5 8.4-.9 1.6-.2 1.8-.4 1.7-2-.2-3.2-.5-6.3-.9-9.4-.5-4.1-.9-8.2-1.4-12.2-.2-1.8 0-2.1 1.9-2.4 9.7-1.3 19.2-3.4 28.6-5.9 10.6-2.7 20.9-6.1 31.2-9.8 5.3-2 10.6-4.1 15.9-6.2.4-.2.9-.4 1.4-.3.6.2.7.7.9 1.2 4.1 9.5 8 19.2 10.5 29.3 1.6 6.3 2.6 12.6 3 19.1.1 2.7 0 5.3-.1 7.9.5.2.7-.2.9-.4 4.2-3 7.9-6.5 11.8-9.9 3.6-3.2 6.9-6.8 9.9-10.5 1.4-1.7 2.7-3.6 3.8-5.5.8-1.3 1-2.6.9-4.1 0-.7-.2-1.5.6-1.9.8-.4 1.4.1 2 .6 1.9 1.3 3.4 3.1 5.3 4.5 2.6 1.9 5.2 3.7 8.4 4.3 1.8.4 3.3-.2 4.5-1.6 1.7-1.9 2.5-4.3 2.6-6.8.2-5-1.1-9.7-2.9-14.2-3.4-9-8.2-17.2-13.3-25.3-1.7-2.7-3.4-5.3-5.2-7.9-4.5-8.4-9-16.9-13.5-25.3-.3-.5-.6-1-.7-1.6-.6-10.9-2.7-21.6-5.1-32.3-2-8.5-4.1-17.1-6.5-25.5-4.2-14.4-10.4-27.8-20.1-39.4-6.7-8-14.6-14.5-23.7-19.5-10.6-5.7-22-8.9-33.9-10.4-4.7-.6-9.4-.9-14.1-.9-4.5.1-9.1-.1-13.6 0-10 .2-19.8 1.6-29.4 4.5-10.8 3.3-20.6 8.3-29.3 15.6C83 37.3 77.9 43 73.4 49.3c-7.9 11.3-13 23.9-16.5 37.1-2.6 9.8-5.2 19.6-7.1 29.6-1 5.1-1.9 10.2-2.5 15.3-.1.6-.2 1.2-.4 1.8-3.5 8.7-6.9 17.5-10.3 26.2-.2.6-.3 1.1-.3 1.7-1.2 2.2-2.7 4.1-4.1 6.2-7.1 10.5-13.8 21.2-18.5 33.1-1 2.7-1.8 5.4-2.5 8.2"/><path class="st1" d="M75.4 189.4c-5.1 11.8-9.7 23.7-12.2 36.3-1.3 6.6-1.9 15-1.2 21.3-1.5-1.1-2.9-2-4.2-3.1-6.8-5.6-13.6-11.4-19.1-18.4-1-1.2-1.8-2.5-2.7-3.7-1.5-2-2.4-4.1-2.2-6.6.1-1.5-.5-1.8-1.7-.9-1.9 1.4-3.6 3.1-5.5 4.6-2.2 1.8-4.6 3.3-7.3 4.2-3.3 1-5.2.2-7.1-2.6-.1-.1-.1-.2-.2-.3-1.1-1.9-1.5-4.1-1.5-6.3v-1c0-1.4.2-2.9.5-4.2.3-1 .4-2.1.7-3.1 2.2-7.7 5.7-14.7 9.7-21.6 4.5-7.9 9.5-15.5 14.8-22.8.5-.1.8.3 1.1.6 6.6 6.6 14 12.2 21.7 17.4 5 3.3 10.1 6.4 15.3 9.2.5.2 1.1.2 1.1 1z"/><path class="st2" d="M132.7 299.3c-1.9-1-2.4-2.6-2.4-4.6.1-2.6.2-5.1.4-7.7.1-.9-.2-1.3-1-1.6-1.9-.7-3.7-1.5-5.5-2.4-1-.5-1.4-.1-1.5.9-.4 2.7-.7 5.3-.8 8-.1 1.8-.9 3-2.4 3.4-2.2.5-4-1-3.9-3.5.1-3.4.5-6.8 1.1-10.2.2-1.1-.1-1.7-1.1-2-1.3-.4-2.7-.9-4-1.4-.9-.4-1.3 0-1.4.8-.6 2.7-1.1 5.4-1.3 8.1-.1 1-.2 2-1.1 2.8-.9.9-2.3 1.1-3.5.7-1.2-.5-2-1.7-1.9-3.2.3-3.5.8-6.9 1.7-10.2.3-1 .3-1.6-1-1.9-1.1-.2-2.2-.6-3.3-1.1-1.1-.5-1.6-.2-1.8 1-.5 2.7-1 5.5-1.3 8.2-.2 1.8-1.3 2.9-2.9 3.1-1.5.2-2.9-.7-3.4-2.2-.3-.8-.2-1.5-.1-2.3.4-3 .8-6 1.6-9 .3-1 0-1.4-.9-1.7-1.2-.3-2.4-.7-3.5-1.1-.8-.3-1.1 0-1.3.8-.7 2.7-1.2 5.4-1.7 8.1-.1.3-.1.7-.2 1-.6 1.8-2.4 2.8-4 2.5-1.6-.4-2.5-1.9-2.2-3.8.6-3.9 1.5-7.7 2.5-11.5 1.5-5.7 3-11.3 4.4-17l.4-1.2c.8 1.9 1.5 3.6 2.2 5.2.9 2.2 2.5 2.5 4.1.8 1.6-1.6 3.1-3.3 4.7-4.9.9-1 1.1-.9 1.7.3l2.7 6.3c.9 2.2 2.3 2.5 4.1.9 2.1-1.8 4.2-3.6 6.3-5.5.7-.7 1.1-.5 1.5.3.9 2.3 1.9 4.7 2.9 7 .9 2.2 2.1 2.6 4.1 1.3 2.1-1.3 4.2-2.5 6.2-3.9 1-.7 1.4-.4 1.9.6.7 1.8 1.6 3.5 2.4 5.3.9 1.9 1.8 2.2 3.7 1.3 2.1-1 4.1-2.1 6.4-3.2-.3 2.6-.6 5-.8 7.5-.9 9.1-2.6 18.2-2.5 27.4 0 1.8-1.1 2.8-2.5 3.5h-1.8z"/><path class="st1" d="M46.7 133.1c2.2-18.1 6.7-35.8 11.8-53.2 4-13.4 10.2-25.8 19.2-36.7 11.6-14 26.3-23 43.8-27.6 9.5-2.5 19.2-3.6 29.1-3.6 6.2 0 12.3-.2 18.5.3 19.2 1.4 37 6.9 52.3 19 10 7.9 17.5 17.8 23.4 29.1 5.1 9.9 8.5 20.5 11.2 31.3 2.4 9.5 4.8 19 6.6 28.7 1.1 6.3 2 12.6 2.5 18.9v1c-1.4 1.2-3.1 1.7-4.6 2.4-5.9 2.8-11.8 5.6-17.8 8.2-2.5 1.1-4.9 2.2-7.4 3.2-.5.2-1 .5-1.6.1-.6-1.6 0-3.1.1-4.7.1-1.7.2-3.3.4-5 .4-6.3.5-12.7.3-19-.3-7.8-.8-15.5-2.2-23.2-1.2-6.6-3.4-12.8-6-18.9-2.3-5.2-5.2-10.1-8.9-14.5-6.3-7.4-14.2-12.1-24-12.9-11.8-.9-22.4 2.3-31.4 10-1.8 1.6-3.5 3.3-5 5.2-1 1.3-1.3 1.3-2.3 0-4.4-5.4-9.8-9.5-16.3-12.1-4.8-2-9.8-3.1-15.1-3.2-5.1-.1-10 .5-14.7 2.4-5.7 2.2-10.3 5.9-14.2 10.5-5.3 6.1-8.8 13.3-11.5 20.9-2.9 8-4.3 16.3-5 24.7-.7 8.1-.9 16.2-.7 24.3.1 5.2.4 10.4 1.1 15.6.1.5.1 1-.1 1.5-.6.7-1.1.2-1.6-.1-4-2.3-8-4.8-11.8-7.5-5.8-4.1-11.2-8.6-16.4-13.3-.8-.5-1.5-1-1.7-1.8z"/><path class="st3" d="M233.5 154.3c4.9-1.8 9.6-4 14.3-6.2 5.3-2.4 10.6-4.9 15.9-7.4.4-.2.8-.3 1.2-.5 4.5 8.5 9.1 17.1 13.6 25.6.2.4.4.8.5 1.1 0 .6-.5.7-.8.9-6.3 3.5-12.6 6.9-19.1 10-7.4 3.6-14.8 7.1-22.4 10.3-.5.2-.9.4-1.5.4-4.2 1.7-8.4 3.3-12.6 5-17.1 6.6-34.6 11.9-52.6 15.5-4.2.8-8.5 1.6-12.8 2.1-.8.1-1 .3-.9 1.1.7 5.9 1.3 11.8 2 17.7.2 2 .3 3.9.4 5.9 0 .6-.1.9-.8 1-5.1.8-10.3 1.3-15.4 1.3-.4-.4-.4-.9-.3-1.4.8-6.8 1.5-13.7 2.3-20.5.8-6.8 1.5-13.5 2.3-20.3.7-6.2 1.3-12.3 2.1-18.5.3-2.5.5-5 .8-7.5.1-.5 0-1 .5-1.4.7.1.7.7.8 1.2.1.7.2 1.4.3 2.2.2 1.3.3 1.5 1.7 1.5 1.9 0 3.8-.2 5.6-.3 8.8-.7 17.5-1.9 26.1-3.7 11-2.3 21.8-5.4 32.4-9.2 4.8-1.7 9.6-3.5 14.4-5.5 1-.3 1.5-.5 2-.4z"/><path class="st2" d="M150.7 168.6c-.6 1.7-.5 3.6-.8 5.4-.5 3.4-.8 6.8-1.2 10.2-.3 2.7-.5 5.3-.8 8-.3 2.7-.6 5.5-1 8.2-.3 2.5-.5 5-.8 7.5-.5 4.3-.9 8.5-1.5 12.8-.5 3.5-.7 7.1-1.1 10.6-.3 2.3-.6 4.6-.7 7-.5 2.6-.6 5.3-1 7.9l-.6 5.1c-.5 0-.4-.3-.5-.6-.4-1.3-.9-2.7-1.3-4-.6-2-2-2.4-3.8-1.3-1.8 1.2-3.5 2.4-5.3 3.6-.5.3-1 .7-1.6 1-1.5-3.3-3-6.5-4.4-9.7-1-2.1-2.3-2.4-4.1-.9-2 1.7-4.1 3.5-6.2 5.3-1.3-3.1-2.6-6.1-3.8-9.1-1.1-2.5-2.5-2.8-4.4-.8-1.8 1.9-3.6 3.7-5.5 5.6-.4.4-.8.9-1.4 1.2-1-2.3-1.9-4.5-2.9-6.7-.8-1.9-2.3-2.2-3.9-.9-1.2 1-2.4 2-3.7 2.9 1.3-4.9 2.6-9.8 3.9-14.6 1.9-7.1 3.8-14.3 5.7-21.4.1-.4.2-.7.1-1.1 0-1.3.4-2.4.8-3.6 2.5-9.2 4.9-18.5 7.3-27.7 0-.2.1-.3.2-.5.5-.6 1.2-.8 1.9-1 4.6-1 9.3-1.7 14.1-2.1 3.2-.2 6.3-.3 9.5-.2 6 .2 12 1 17.9 2.4.5.1 1.5.3.9 1.5z"/><path class="st1" d="M235.4 188.6c4-1.8 7.9-3.5 11.9-5.3 10.7-4.9 21.1-10.2 31.4-15.9.1-.1.3-.2.4-.3 5 7.1 9.6 14.5 13.6 22.2 3.1 5.9 5.8 12 7.3 18.5.6 2.9.9 5.8.4 8.8-.1.5-.2 1.1-.4 1.6-1.7 5-4.9 6.4-9.7 4.3-3.6-1.6-6.5-4-9.4-6.7-.8-.7-1.5-1.4-2.4-1.8-.8-.4-1.1-.1-1.2.7v.3c.4 3.1-1.2 5.5-2.9 7.8-4.5 6.4-10.2 11.7-16.1 16.9-2.7 2.4-5.5 4.7-8.4 6.7-.2.2-.5.3-.9.6.3-3.2.4-6.2.2-9.3-.5-8.9-2.3-17.4-5-25.9-2.3-7.9-5.6-15.6-8.8-23.2z"/><path class="st3" d="M106.3 168.1c.1 1.6-.5 3-.9 4.4-1.9 7.3-3.8 14.7-5.8 22-.5 1.7-.7 3.5-1.5 5.1-7.4-2.8-14.6-6.2-21.7-9.9-.3-.2-.6-.3-.9-.4-3.9-2.3-7.8-4.4-11.6-6.8-9.8-6.2-19.1-13-27.2-21.2-.1-.1-.3-.2-.4-.3-.3-.4-.3-.7-.1-1.2 3.5-8.8 6.9-17.7 10.4-26.6 0-.1.2-.2.2-.3 8.9 8.5 18.6 15.9 29.3 22.1.6.3 1.2.6 1.8 1 1.3.2 2.4 1 3.5 1.6 4.9 2.7 10 4.8 15.2 6.8 2.9 1.1 5.9 2.1 8.8 3 .2.2.7.3.9.7z"/><path class="st4" d="M107.4 239.8c.9 2.1 1.9 4.5 2.9 7 .2.4.1.7-.3 1-1.9 1.6-3.8 3.2-5.6 4.9-.4.4-.6.3-.8-.2-.8-2.1-1.7-4.1-2.6-6.1-.2-.4-.2-.6.1-.9l6.3-5.7zm11.5 16.7c-1-2.5-2-4.9-3-7.3-.2-.4-.1-.6.2-.9 1.5-1.3 3.1-2.6 4.6-3.9.4-.4.7-.4.9.2 1.1 2.4 2.1 4.7 3.2 7.1.2.4.2.7-.2 1-1.9 1.2-3.7 2.4-5.7 3.8zM93 238.9c.3.1.4.3.5.6.7 1.6 1.3 3.2 2.1 4.8.2.4.1.7-.2 1-1.4 1.4-2.8 2.8-4.1 4.2-.6.7-.8.4-1.1-.3-.7-1.7-1.4-3.3-2.1-4.9-.2-.4-.4-.7.1-1.1 1.5-1.3 3-2.7 4.5-4 0-.1.2-.2.3-.3zm45 17.8c.1.4-.2.5-.5.6-1.3.7-2.6 1.3-3.9 2-.5.3-.7.1-.9-.3-.7-1.5-1.3-3-2.1-4.5-.3-.5-.1-.8.3-1.2 1.4-.9 2.8-1.9 4.1-2.8.2-.2.6-.6.8 0 .9 2.1 1.6 4.1 2.2 6.2z"/><path class="st0" d="M106.3 168.1c-9.5-2.8-18.7-6.6-27.4-11.4-.4-.2-.7-.4-1.1-.7-.3-4.1-.7-8.2-1-12.3-.5-9.1-.3-18.2.2-27.3.8-12.9 3.5-25.4 9.5-37 3.9-7.6 8.9-14.2 16.2-18.8 6.1-3.9 12.8-5.4 19.9-5.2 12.1.3 22.2 4.8 30.5 13.6.6.7 1.3 1.4 1.8 2.2.5.7.7.7 1.3 0 6.4-8.1 14.8-13.2 24.9-15 16.4-3 29.6 2.3 39.1 16 6.9 9.9 10.8 21 12.6 32.8 1.7 11.4 2 22.9 1.7 34.4-.1 4.9-.6 9.8-1 14.7-5.6 2.5-11.3 4.6-17.1 6.6-12.5 4.4-25.3 7.9-38.3 10.1-8.5 1.5-17.1 2.4-25.7 2.7-.7 0-1-.1-1-.8-.2-1.4-.4-2.9-.7-4.3.2-.9-.4-1.1-1.1-1.2a94.3 94.3 0 0 0-22.4-2.4c-6.5.1-12.9.9-19.3 2.4-.6.2-1.2.4-1.6.9z"/><path class="st5" d="M155.3 150c-.7-.1-1.4-.2-2.1-.5-8.1-3.4-14.1-9.1-17.9-17-.4-.9-.4-1.3.6-1.8 6-3 12-6.1 17.9-9.1 1.1-.5 2-.6 3 0 6 3.1 12.1 6.2 18.1 9.3.8.4.8.7.5 1.4-3.8 8.1-9.9 13.9-18.2 17.3-.5.2-1.2.3-1.9.4z"/><path class="st6" d="M179.6 93.9c4.9 0 8.9 4 8.9 8.9s-4 8.9-8.9 9c-4.9 0-9-4-9-9s4-8.9 9-8.9zm-37.1 2.5c.1.7-.4 1.4-1 2.1l-3.7 3.7c-.6.5-.5.8 0 1.3 1.3 1.2 2.5 2.5 3.7 3.7 1.3 1.3 1.3 3.1.2 4.4-1.2 1.2-3 1.2-4.4-.1-1.3-1.2-2.6-2.5-3.8-3.8-.5-.5-.7-.5-1.2 0-1.2 1.3-2.5 2.5-3.7 3.7-1.4 1.4-3.2 1.4-4.4.2-1.2-1.2-1.1-3.1.3-4.4l3.6-3.6c.5-.5.6-.8 0-1.3-1.3-1.2-2.4-2.4-3.6-3.6-1.4-1.4-1.5-3.3-.2-4.5 1.3-1.2 3-1.1 4.4.3l3.7 3.7c.4.5.7.4 1.1 0 1.3-1.4 2.6-2.7 4-4 1-.9 2.1-1.1 3.3-.6 1.2.3 1.7 1.3 1.7 2.8z"/></svg>